<svg aria-roledescription="er" viewBox="0 0 580.753173828125 1220" style="max-width: 580.753173828125px;" xmlns="http://www.w3.org/2000/svg" width="undefined" id="mermaid-svg" height="undefined"><style>#mermaid-svg{font-family:"trebuchet ms",verdana,arial,sans-serif;font-size:16px;fill:#333;}#mermaid-svg .error-icon{fill:#552222;}#mermaid-svg .error-text{fill:#552222;stroke:#552222;}#mermaid-svg .edge-thickness-normal{stroke-width:2px;}#mermaid-svg .edge-thickness-thick{stroke-width:3.5px;}#mermaid-svg .edge-pattern-solid{stroke-dasharray:0;}#mermaid-svg .edge-pattern-dashed{stroke-dasharray:3;}#mermaid-svg .edge-pattern-dotted{stroke-dasharray:2;}#mermaid-svg .marker{fill:#333333;stroke:#333333;}#mermaid-svg .marker.cross{stroke:#333333;}#mermaid-svg svg{font-family:"trebuchet ms",verdana,arial,sans-serif;font-size:16px;}#mermaid-svg .entityBox{fill:#ECECFF;stroke:#9370DB;}#mermaid-svg .attributeBoxOdd{fill:#ffffff;stroke:#9370DB;}#mermaid-svg .attributeBoxEven{fill:#f2f2f2;stroke:#9370DB;}#mermaid-svg .relationshipLabelBox{fill:hsl(80, 100%, 96.2745098039%);opacity:0.7;background-color:hsl(80, 100%, 96.2745098039%);}#mermaid-svg .relationshipLabelBox rect{opacity:0.5;}#mermaid-svg .relationshipLine{stroke:#333333;}#mermaid-svg .entityTitleText{text-anchor:middle;font-size:18px;fill:#333;}#mermaid-svg :root{--mermaid-font-family:"trebuchet ms",verdana,arial,sans-serif;}</style><g></g><defs><marker orient="auto" markerHeight="18" markerWidth="18" refY="9" refX="0" id="ONLY_ONE_START"><path d="M9,0 L9,18 M15,0 L15,18" fill="none" stroke="gray"></path></marker></defs><defs><marker orient="auto" markerHeight="18" markerWidth="18" refY="9" refX="18" id="ONLY_ONE_END"><path d="M3,0 L3,18 M9,0 L9,18" fill="none" stroke="gray"></path></marker></defs><defs><marker orient="auto" markerHeight="18" markerWidth="30" refY="9" refX="0" id="ZERO_OR_ONE_START"><circle r="6" cy="9" cx="21" fill="white" stroke="gray"></circle><path d="M9,0 L9,18" fill="none" stroke="gray"></path></marker></defs><defs><marker orient="auto" markerHeight="18" markerWidth="30" refY="9" refX="30" id="ZERO_OR_ONE_END"><circle r="6" cy="9" cx="9" fill="white" stroke="gray"></circle><path d="M21,0 L21,18" fill="none" stroke="gray"></path></marker></defs><defs><marker orient="auto" markerHeight="36" markerWidth="45" refY="18" refX="18" id="ONE_OR_MORE_START"><path d="M0,18 Q 18,0 36,18 Q 18,36 0,18 M42,9 L42,27" fill="none" stroke="gray"></path></marker></defs><defs><marker orient="auto" markerHeight="36" markerWidth="45" refY="18" refX="27" id="ONE_OR_MORE_END"><path d="M3,9 L3,27 M9,18 Q27,0 45,18 Q27,36 9,18" fill="none" stroke="gray"></path></marker></defs><defs><marker orient="auto" markerHeight="36" markerWidth="57" refY="18" refX="18" id="ZERO_OR_MORE_START"><circle r="6" cy="18" cx="48" fill="white" stroke="gray"></circle><path d="M0,18 Q18,0 36,18 Q18,36 0,18" fill="none" stroke="gray"></path></marker></defs><defs><marker orient="auto" markerHeight="36" markerWidth="57" refY="18" refX="39" id="ZERO_OR_MORE_END"><circle r="6" cy="18" cx="9" fill="white" stroke="gray"></circle><path d="M21,18 Q39,0 57,18 Q39,36 21,18" fill="none" stroke="gray"></path></marker></defs><path style="stroke: gray; fill: none;" marker-start="url(#ZERO_OR_MORE_START)" marker-end="url(#ONLY_ONE_END)" d="M289.24609375,922L289.24609375,930.3333333333334C289.24609375,938.6666666666666,289.24609375,955.3333333333334,289.0414137440048,972C288.83673373800957,988.6666666666666,288.4273737260192,1005.3333333333334,288.222693720024,1013.6666666666666L288.01801371402877,1022" class="er relationshipLine"></path><path style="stroke: gray; fill: none;" marker-start="url(#ZERO_OR_MORE_START)" marker-end="url(#ONLY_ONE_END)" d="M425.80078125,654.1360497648669L437.3665364583333,664.4467081373891C448.9322916666667,674.7573665099113,472.0638020833333,695.3786832549557,483.6295572916667,727.0226749608113C495.1953125,758.6666666666666,495.1953125,801.3333333333334,495.1953125,844C495.1953125,886.6666666666666,495.1953125,929.3333333333334,469.5774739583333,967.6748045599567C443.9596354166667,1006.0162757865801,392.7239583333333,1040.0325515731602,367.1061197916667,1057.0406894664502L341.48828125,1074.0488273597402" class="er relationshipLine"></path><path style="stroke: gray; fill: none;" marker-start="url(#ZERO_OR_MORE_START)" marker-end="url(#ONLY_ONE_END)" d="M328.19591346153845,655L321.70427684294873,665.1666666666666C315.21264022435895,675.3333333333334,302.2293669871795,695.6666666666666,295.7377303685898,714.1666666666666C289.24609375,732.6666666666666,289.24609375,749.3333333333334,289.24609375,757.6666666666666L289.24609375,766" class="er relationshipLine"></path><path style="stroke: gray; fill: none;" marker-start="url(#ZERO_OR_MORE_START)" marker-end="url(#ONLY_ONE_END)" d="M111.51118456196582,666L115.09330484330485,674.3333333333334C118.67542512464388,682.6666666666666,125.83966568732194,699.3333333333334,129.42178596866097,729C133.00390625,758.6666666666666,133.00390625,801.3333333333334,133.00390625,844C133.00390625,886.6666666666666,133.00390625,929.3333333333334,149.19921875,965.3966022560747C165.39453125,1001.4598711788161,197.78515625,1030.9197423576322,213.98046875,1045.6496779470401L230.17578125,1060.3796135364482" class="er relationshipLine"></path><path style="stroke: gray; fill: none;" marker-start="url(#ZERO_OR_MORE_START)" marker-end="url(#ONLY_ONE_END)" d="M54.246227297008545,666L50.70584045584045,674.3333333333334C47.165453614672366,682.6666666666666,40.08467993233618,699.3333333333334,69.87762642450143,724.3175808205534C99.67057291666667,749.3018283077736,166.33723958333334,782.6036566155472,199.67057291666666,799.254570769434L233.00390625,815.9054849233208" class="er relationshipLine"></path><path style="stroke: gray; fill: none;" marker-start="url(#ZERO_OR_MORE_START)" marker-end="url(#ONLY_ONE_END)" d="M179.27532958984375,432L184.58360799153647,440.3333333333333C189.89188639322916,448.6666666666667,200.5084431966146,465.3333333333333,220.98013305664062,485.2752573015711C241.45182291666666,505.21718126980886,271.7786458333333,528.4343625396176,286.9420572916667,540.042953174522L302.10546875,551.6515438094265" class="er relationshipLine"></path><path style="stroke: gray; fill: none;" marker-start="url(#ZERO_OR_MORE_START)" marker-end="url(#ONLY_ONE_END)" d="M101.02301025390625,432L97.9709981282552,440.3333333333333C94.91898600260417,448.6666666666667,88.81496175130208,465.3333333333333,85.76294962565105,482C82.7109375,498.6666666666667,82.7109375,515.3333333333334,82.7109375,523.6666666666666L82.7109375,532" class="er relationshipLine"></path><path style="stroke: gray; fill: none;" marker-start="url(#ZERO_OR_MORE_START)" marker-end="url(#ONLY_ONE_END)" d="M393.4453125,377L396.86328125,394.5C400.28125,412,407.1171875,447,406.19042690527067,474.6666666666667C405.26366631054134,502.3333333333333,396.5742076210826,522.6666666666666,392.2294782763533,532.8333333333334L387.8847489316239,543" class="er relationshipLine"></path><path style="stroke: gray; fill: none;" marker-start="url(#ZERO_OR_MORE_START)" marker-end="url(#ONLY_ONE_END)" d="M374.9683837890625,377L364.32781982421875,394.5C353.687255859375,412,332.4061279296875,447,326.35604206313434,474.6666666666667C320.30595619658123,502.3333333333333,329.4869123931624,522.6666666666666,334.077390491453,532.8333333333334L338.6678685897436,543" class="er relationshipLine"></path><path style="stroke: gray; fill: none;" marker-start="url(#ZERO_OR_MORE_START)" marker-end="url(#ONLY_ONE_END)" d="M519.421875,176L522.6770833333334,184.33333333333334C525.9322916666666,192.66666666666666,532.4427083333334,209.33333333333334,535.6979166666666,239C538.953125,268.6666666666667,538.953125,311.3333333333333,538.953125,354C538.953125,396.6666666666667,538.953125,439.3333333333333,520.0944010416666,473.2750706845238C501.2356770833333,507.21680803571434,463.5182291666667,532.4336160714286,444.6595052083333,545.0420200892858L425.80078125,557.6504241071428" class="er relationshipLine"></path><path style="stroke: gray; fill: none;" marker-start="url(#ZERO_OR_MORE_START)" marker-end="url(#ONLY_ONE_END)" d="M433.296875,169.24L425.90625,178.70000000000002C418.515625,188.16,403.734375,207.08,396.34375,234.04C388.953125,261,388.953125,296,388.953125,313.5L388.953125,331" class="er relationshipLine"></path><g transform="translate(230.17578125,1022 )" id="entity-Profile-938d0261-8c14-4edb-9e0e-8c2fc7732fd6"><rect height="178" width="111.3125" y="0" x="0" class="er entityBox"></rect><text style="dominant-baseline: middle; text-anchor: middle; font-size: 12px;" transform="translate(55.65625,12)" y="0" x="0" id="text-entity-Profile-938d0261-8c14-4edb-9e0e-8c2fc7732fd6" class="er entityLabel">Profile</text><rect height="22" width="53.6640625" y="24" x="0" class="er attributeBoxOdd"></rect><text style="dominant-baseline: middle; font-size: 10.2px;" transform="translate(5,35)" y="0" x="0" id="text-entity-Profile-938d0261-8c14-4edb-9e0e-8c2fc7732fd6-attr-1-type" class="er entityLabel">String</text><rect height="22" width="57.6484375" y="24" x="53.6640625" class="er attributeBoxOdd"></rect><text style="dominant-baseline: middle; font-size: 10.2px;" transform="translate(58.6640625,35)" y="0" x="0" id="text-entity-Profile-938d0261-8c14-4edb-9e0e-8c2fc7732fd6-attr-1-name" class="er entityLabel">id</text><rect height="22" width="53.6640625" y="46" x="0" class="er attributeBoxEven"></rect><text style="dominant-baseline: middle; font-size: 10.2px;" transform="translate(5,57)" y="0" x="0" id="text-entity-Profile-938d0261-8c14-4edb-9e0e-8c2fc7732fd6-attr-2-type" class="er entityLabel">String</text><rect height="22" width="57.6484375" y="46" x="53.6640625" class="er attributeBoxEven"></rect><text style="dominant-baseline: middle; font-size: 10.2px;" transform="translate(58.6640625,57)" y="0" x="0" id="text-entity-Profile-938d0261-8c14-4edb-9e0e-8c2fc7732fd6-attr-2-name" class="er entityLabel">userId</text><rect height="22" width="53.6640625" y="68" x="0" class="er attributeBoxOdd"></rect><text style="dominant-baseline: middle; font-size: 10.2px;" transform="translate(5,79)" y="0" x="0" id="text-entity-Profile-938d0261-8c14-4edb-9e0e-8c2fc7732fd6-attr-3-type" class="er entityLabel">String</text><rect height="22" width="57.6484375" y="68" x="53.6640625" class="er attributeBoxOdd"></rect><text style="dominant-baseline: middle; font-size: 10.2px;" transform="translate(58.6640625,79)" y="0" x="0" id="text-entity-Profile-938d0261-8c14-4edb-9e0e-8c2fc7732fd6-attr-3-name" class="er entityLabel">name</text><rect height="22" width="53.6640625" y="90" x="0" class="er attributeBoxEven"></rect><text style="dominant-baseline: middle; font-size: 10.2px;" transform="translate(5,101)" y="0" x="0" id="text-entity-Profile-938d0261-8c14-4edb-9e0e-8c2fc7732fd6-attr-4-type" class="er entityLabel">String</text><rect height="22" width="57.6484375" y="90" x="53.6640625" class="er attributeBoxEven"></rect><text style="dominant-baseline: middle; font-size: 10.2px;" transform="translate(58.6640625,101)" y="0" x="0" id="text-entity-Profile-938d0261-8c14-4edb-9e0e-8c2fc7732fd6-attr-4-name" class="er entityLabel">imageUrl</text><rect height="22" width="53.6640625" y="112" x="0" class="er attributeBoxOdd"></rect><text style="dominant-baseline: middle; font-size: 10.2px;" transform="translate(5,123)" y="0" x="0" id="text-entity-Profile-938d0261-8c14-4edb-9e0e-8c2fc7732fd6-attr-5-type" class="er entityLabel">String</text><rect height="22" width="57.6484375" y="112" x="53.6640625" class="er attributeBoxOdd"></rect><text style="dominant-baseline: middle; font-size: 10.2px;" transform="translate(58.6640625,123)" y="0" x="0" id="text-entity-Profile-938d0261-8c14-4edb-9e0e-8c2fc7732fd6-attr-5-name" class="er entityLabel">email</text><rect height="22" width="53.6640625" y="134" x="0" class="er attributeBoxEven"></rect><text style="dominant-baseline: middle; font-size: 10.2px;" transform="translate(5,145)" y="0" x="0" id="text-entity-Profile-938d0261-8c14-4edb-9e0e-8c2fc7732fd6-attr-6-type" class="er entityLabel">DateTime</text><rect height="22" width="57.6484375" y="134" x="53.6640625" class="er attributeBoxEven"></rect><text style="dominant-baseline: middle; font-size: 10.2px;" transform="translate(58.6640625,145)" y="0" x="0" id="text-entity-Profile-938d0261-8c14-4edb-9e0e-8c2fc7732fd6-attr-6-name" class="er entityLabel">createdAt</text><rect height="22" width="53.6640625" y="156" x="0" class="er attributeBoxOdd"></rect><text style="dominant-baseline: middle; font-size: 10.2px;" transform="translate(5,167)" y="0" x="0" id="text-entity-Profile-938d0261-8c14-4edb-9e0e-8c2fc7732fd6-attr-7-type" class="er entityLabel">DateTime</text><rect height="22" width="57.6484375" y="156" x="53.6640625" class="er attributeBoxOdd"></rect><text style="dominant-baseline: middle; font-size: 10.2px;" transform="translate(58.6640625,167)" y="0" x="0" id="text-entity-Profile-938d0261-8c14-4edb-9e0e-8c2fc7732fd6-attr-7-name" class="er entityLabel">updatedAt</text></g><g transform="translate(233.00390625,766 )" id="entity-Server-f04b396c-d6ff-4d40-b986-8e46d71ba0c2"><rect height="156" width="112.484375" y="0" x="0" class="er entityBox"></rect><text style="dominant-baseline: middle; text-anchor: middle; font-size: 12px;" transform="translate(56.2421875,12)" y="0" x="0" id="text-entity-Server-f04b396c-d6ff-4d40-b986-8e46d71ba0c2" class="er entityLabel">Server</text><rect height="22" width="53.6640625" y="24" x="0" class="er attributeBoxOdd"></rect><text style="dominant-baseline: middle; font-size: 10.2px;" transform="translate(5,35)" y="0" x="0" id="text-entity-Server-f04b396c-d6ff-4d40-b986-8e46d71ba0c2-attr-1-type" class="er entityLabel">String</text><rect height="22" width="58.8203125" y="24" x="53.6640625" class="er attributeBoxOdd"></rect><text style="dominant-baseline: middle; font-size: 10.2px;" transform="translate(58.6640625,35)" y="0" x="0" id="text-entity-Server-f04b396c-d6ff-4d40-b986-8e46d71ba0c2-attr-1-name" class="er entityLabel">id</text><rect height="22" width="53.6640625" y="46" x="0" class="er attributeBoxEven"></rect><text style="dominant-baseline: middle; font-size: 10.2px;" transform="translate(5,57)" y="0" x="0" id="text-entity-Server-f04b396c-d6ff-4d40-b986-8e46d71ba0c2-attr-2-type" class="er entityLabel">String</text><rect height="22" width="58.8203125" y="46" x="53.6640625" class="er attributeBoxEven"></rect><text style="dominant-baseline: middle; font-size: 10.2px;" transform="translate(58.6640625,57)" y="0" x="0" id="text-entity-Server-f04b396c-d6ff-4d40-b986-8e46d71ba0c2-attr-2-name" class="er entityLabel">name</text><rect height="22" width="53.6640625" y="68" x="0" class="er attributeBoxOdd"></rect><text style="dominant-baseline: middle; font-size: 10.2px;" transform="translate(5,79)" y="0" x="0" id="text-entity-Server-f04b396c-d6ff-4d40-b986-8e46d71ba0c2-attr-3-type" class="er entityLabel">String</text><rect height="22" width="58.8203125" y="68" x="53.6640625" class="er attributeBoxOdd"></rect><text style="dominant-baseline: middle; font-size: 10.2px;" transform="translate(58.6640625,79)" y="0" x="0" id="text-entity-Server-f04b396c-d6ff-4d40-b986-8e46d71ba0c2-attr-3-name" class="er entityLabel">imageUrl</text><rect height="22" width="53.6640625" y="90" x="0" class="er attributeBoxEven"></rect><text style="dominant-baseline: middle; font-size: 10.2px;" transform="translate(5,101)" y="0" x="0" id="text-entity-Server-f04b396c-d6ff-4d40-b986-8e46d71ba0c2-attr-4-type" class="er entityLabel">String</text><rect height="22" width="58.8203125" y="90" x="53.6640625" class="er attributeBoxEven"></rect><text style="dominant-baseline: middle; font-size: 10.2px;" transform="translate(58.6640625,101)" y="0" x="0" id="text-entity-Server-f04b396c-d6ff-4d40-b986-8e46d71ba0c2-attr-4-name" class="er entityLabel">inviteCode</text><rect height="22" width="53.6640625" y="112" x="0" class="er attributeBoxOdd"></rect><text style="dominant-baseline: middle; font-size: 10.2px;" transform="translate(5,123)" y="0" x="0" id="text-entity-Server-f04b396c-d6ff-4d40-b986-8e46d71ba0c2-attr-5-type" class="er entityLabel">DateTime</text><rect height="22" width="58.8203125" y="112" x="53.6640625" class="er attributeBoxOdd"></rect><text style="dominant-baseline: middle; font-size: 10.2px;" transform="translate(58.6640625,123)" y="0" x="0" id="text-entity-Server-f04b396c-d6ff-4d40-b986-8e46d71ba0c2-attr-5-name" class="er entityLabel">createdAt</text><rect height="22" width="53.6640625" y="134" x="0" class="er attributeBoxEven"></rect><text style="dominant-baseline: middle; font-size: 10.2px;" transform="translate(5,145)" y="0" x="0" id="text-entity-Server-f04b396c-d6ff-4d40-b986-8e46d71ba0c2-attr-6-type" class="er entityLabel">DateTime</text><rect height="22" width="58.8203125" y="134" x="53.6640625" class="er attributeBoxEven"></rect><text style="dominant-baseline: middle; font-size: 10.2px;" transform="translate(58.6640625,145)" y="0" x="0" id="text-entity-Server-f04b396c-d6ff-4d40-b986-8e46d71ba0c2-attr-6-name" class="er entityLabel">updatedAt</text></g><g transform="translate(302.10546875,543 )" id="entity-Member-356b713e-72db-4184-b256-da1fcaa771f5"><rect height="112" width="123.6953125" y="0" x="0" class="er entityBox"></rect><text style="dominant-baseline: middle; text-anchor: middle; font-size: 12px;" transform="translate(61.84765625,12)" y="0" x="0" id="text-entity-Member-356b713e-72db-4184-b256-da1fcaa771f5" class="er entityLabel">Member</text><rect height="22" width="66.046875" y="24" x="0" class="er attributeBoxOdd"></rect><text style="dominant-baseline: middle; font-size: 10.2px;" transform="translate(5,35)" y="0" x="0" id="text-entity-Member-356b713e-72db-4184-b256-da1fcaa771f5-attr-1-type" class="er entityLabel">String</text><rect height="22" width="57.6484375" y="24" x="66.046875" class="er attributeBoxOdd"></rect><text style="dominant-baseline: middle; font-size: 10.2px;" transform="translate(71.046875,35)" y="0" x="0" id="text-entity-Member-356b713e-72db-4184-b256-da1fcaa771f5-attr-1-name" class="er entityLabel">id</text><rect height="22" width="66.046875" y="46" x="0" class="er attributeBoxEven"></rect><text style="dominant-baseline: middle; font-size: 10.2px;" transform="translate(5,57)" y="0" x="0" id="text-entity-Member-356b713e-72db-4184-b256-da1fcaa771f5-attr-2-type" class="er entityLabel">MemberRole</text><rect height="22" width="57.6484375" y="46" x="66.046875" class="er attributeBoxEven"></rect><text style="dominant-baseline: middle; font-size: 10.2px;" transform="translate(71.046875,57)" y="0" x="0" id="text-entity-Member-356b713e-72db-4184-b256-da1fcaa771f5-attr-2-name" class="er entityLabel">role</text><rect height="22" width="66.046875" y="68" x="0" class="er attributeBoxOdd"></rect><text style="dominant-baseline: middle; font-size: 10.2px;" transform="translate(5,79)" y="0" x="0" id="text-entity-Member-356b713e-72db-4184-b256-da1fcaa771f5-attr-3-type" class="er entityLabel">DateTime</text><rect height="22" width="57.6484375" y="68" x="66.046875" class="er attributeBoxOdd"></rect><text style="dominant-baseline: middle; font-size: 10.2px;" transform="translate(71.046875,79)" y="0" x="0" id="text-entity-Member-356b713e-72db-4184-b256-da1fcaa771f5-attr-3-name" class="er entityLabel">createdAt</text><rect height="22" width="66.046875" y="90" x="0" class="er attributeBoxEven"></rect><text style="dominant-baseline: middle; font-size: 10.2px;" transform="translate(5,101)" y="0" x="0" id="text-entity-Member-356b713e-72db-4184-b256-da1fcaa771f5-attr-4-type" class="er entityLabel">DateTime</text><rect height="22" width="57.6484375" y="90" x="66.046875" class="er attributeBoxEven"></rect><text style="dominant-baseline: middle; font-size: 10.2px;" transform="translate(71.046875,101)" y="0" x="0" id="text-entity-Member-356b713e-72db-4184-b256-da1fcaa771f5-attr-4-name" class="er entityLabel">updatedAt</text></g><g transform="translate(20,532 )" id="entity-Channel-c438c54b-1545-401b-acf6-854b36d99bb4"><rect height="134" width="125.421875" y="0" x="0" class="er entityBox"></rect><text style="dominant-baseline: middle; text-anchor: middle; font-size: 12px;" transform="translate(62.7109375,12)" y="0" x="0" id="text-entity-Channel-c438c54b-1545-401b-acf6-854b36d99bb4" class="er entityLabel">Channel</text><rect height="22" width="67.7734375" y="24" x="0" class="er attributeBoxOdd"></rect><text style="dominant-baseline: middle; font-size: 10.2px;" transform="translate(5,35)" y="0" x="0" id="text-entity-Channel-c438c54b-1545-401b-acf6-854b36d99bb4-attr-1-type" class="er entityLabel">String</text><rect height="22" width="57.6484375" y="24" x="67.7734375" class="er attributeBoxOdd"></rect><text style="dominant-baseline: middle; font-size: 10.2px;" transform="translate(72.7734375,35)" y="0" x="0" id="text-entity-Channel-c438c54b-1545-401b-acf6-854b36d99bb4-attr-1-name" class="er entityLabel">id</text><rect height="22" width="67.7734375" y="46" x="0" class="er attributeBoxEven"></rect><text style="dominant-baseline: middle; font-size: 10.2px;" transform="translate(5,57)" y="0" x="0" id="text-entity-Channel-c438c54b-1545-401b-acf6-854b36d99bb4-attr-2-type" class="er entityLabel">String</text><rect height="22" width="57.6484375" y="46" x="67.7734375" class="er attributeBoxEven"></rect><text style="dominant-baseline: middle; font-size: 10.2px;" transform="translate(72.7734375,57)" y="0" x="0" id="text-entity-Channel-c438c54b-1545-401b-acf6-854b36d99bb4-attr-2-name" class="er entityLabel">name</text><rect height="22" width="67.7734375" y="68" x="0" class="er attributeBoxOdd"></rect><text style="dominant-baseline: middle; font-size: 10.2px;" transform="translate(5,79)" y="0" x="0" id="text-entity-Channel-c438c54b-1545-401b-acf6-854b36d99bb4-attr-3-type" class="er entityLabel">ChannelType</text><rect height="22" width="57.6484375" y="68" x="67.7734375" class="er attributeBoxOdd"></rect><text style="dominant-baseline: middle; font-size: 10.2px;" transform="translate(72.7734375,79)" y="0" x="0" id="text-entity-Channel-c438c54b-1545-401b-acf6-854b36d99bb4-attr-3-name" class="er entityLabel">type</text><rect height="22" width="67.7734375" y="90" x="0" class="er attributeBoxEven"></rect><text style="dominant-baseline: middle; font-size: 10.2px;" transform="translate(5,101)" y="0" x="0" id="text-entity-Channel-c438c54b-1545-401b-acf6-854b36d99bb4-attr-4-type" class="er entityLabel">DateTime</text><rect height="22" width="57.6484375" y="90" x="67.7734375" class="er attributeBoxEven"></rect><text style="dominant-baseline: middle; font-size: 10.2px;" transform="translate(72.7734375,101)" y="0" x="0" id="text-entity-Channel-c438c54b-1545-401b-acf6-854b36d99bb4-attr-4-name" class="er entityLabel">createdAt</text><rect height="22" width="67.7734375" y="112" x="0" class="er attributeBoxOdd"></rect><text style="dominant-baseline: middle; font-size: 10.2px;" transform="translate(5,123)" y="0" x="0" id="text-entity-Channel-c438c54b-1545-401b-acf6-854b36d99bb4-attr-5-type" class="er entityLabel">DateTime</text><rect height="22" width="57.6484375" y="112" x="67.7734375" class="er attributeBoxOdd"></rect><text style="dominant-baseline: middle; font-size: 10.2px;" transform="translate(72.7734375,123)" y="0" x="0" id="text-entity-Channel-c438c54b-1545-401b-acf6-854b36d99bb4-attr-5-name" class="er entityLabel">updatedAt</text></g><g transform="translate(73.93359375,276 )" id="entity-Message-65726993-045d-40f1-8f42-519081229810"><rect height="156" width="111.3125" y="0" x="0" class="er entityBox"></rect><text style="dominant-baseline: middle; text-anchor: middle; font-size: 12px;" transform="translate(55.65625,12)" y="0" x="0" id="text-entity-Message-65726993-045d-40f1-8f42-519081229810" class="er entityLabel">Message</text><rect height="22" width="53.6640625" y="24" x="0" class="er attributeBoxOdd"></rect><text style="dominant-baseline: middle; font-size: 10.2px;" transform="translate(5,35)" y="0" x="0" id="text-entity-Message-65726993-045d-40f1-8f42-519081229810-attr-1-type" class="er entityLabel">String</text><rect height="22" width="57.6484375" y="24" x="53.6640625" class="er attributeBoxOdd"></rect><text style="dominant-baseline: middle; font-size: 10.2px;" transform="translate(58.6640625,35)" y="0" x="0" id="text-entity-Message-65726993-045d-40f1-8f42-519081229810-attr-1-name" class="er entityLabel">id</text><rect height="22" width="53.6640625" y="46" x="0" class="er attributeBoxEven"></rect><text style="dominant-baseline: middle; font-size: 10.2px;" transform="translate(5,57)" y="0" x="0" id="text-entity-Message-65726993-045d-40f1-8f42-519081229810-attr-2-type" class="er entityLabel">String</text><rect height="22" width="57.6484375" y="46" x="53.6640625" class="er attributeBoxEven"></rect><text style="dominant-baseline: middle; font-size: 10.2px;" transform="translate(58.6640625,57)" y="0" x="0" id="text-entity-Message-65726993-045d-40f1-8f42-519081229810-attr-2-name" class="er entityLabel">content</text><rect height="22" width="53.6640625" y="68" x="0" class="er attributeBoxOdd"></rect><text style="dominant-baseline: middle; font-size: 10.2px;" transform="translate(5,79)" y="0" x="0" id="text-entity-Message-65726993-045d-40f1-8f42-519081229810-attr-3-type" class="er entityLabel">String</text><rect height="22" width="57.6484375" y="68" x="53.6640625" class="er attributeBoxOdd"></rect><text style="dominant-baseline: middle; font-size: 10.2px;" transform="translate(58.6640625,79)" y="0" x="0" id="text-entity-Message-65726993-045d-40f1-8f42-519081229810-attr-3-name" class="er entityLabel">fileUrl</text><rect height="22" width="53.6640625" y="90" x="0" class="er attributeBoxEven"></rect><text style="dominant-baseline: middle; font-size: 10.2px;" transform="translate(5,101)" y="0" x="0" id="text-entity-Message-65726993-045d-40f1-8f42-519081229810-attr-4-type" class="er entityLabel">Boolean</text><rect height="22" width="57.6484375" y="90" x="53.6640625" class="er attributeBoxEven"></rect><text style="dominant-baseline: middle; font-size: 10.2px;" transform="translate(58.6640625,101)" y="0" x="0" id="text-entity-Message-65726993-045d-40f1-8f42-519081229810-attr-4-name" class="er entityLabel">deleted</text><rect height="22" width="53.6640625" y="112" x="0" class="er attributeBoxOdd"></rect><text style="dominant-baseline: middle; font-size: 10.2px;" transform="translate(5,123)" y="0" x="0" id="text-entity-Message-65726993-045d-40f1-8f42-519081229810-attr-5-type" class="er entityLabel">DateTime</text><rect height="22" width="57.6484375" y="112" x="53.6640625" class="er attributeBoxOdd"></rect><text style="dominant-baseline: middle; font-size: 10.2px;" transform="translate(58.6640625,123)" y="0" x="0" id="text-entity-Message-65726993-045d-40f1-8f42-519081229810-attr-5-name" class="er entityLabel">createdAt</text><rect height="22" width="53.6640625" y="134" x="0" class="er attributeBoxEven"></rect><text style="dominant-baseline: middle; font-size: 10.2px;" transform="translate(5,145)" y="0" x="0" id="text-entity-Message-65726993-045d-40f1-8f42-519081229810-attr-6-type" class="er entityLabel">DateTime</text><rect height="22" width="57.6484375" y="134" x="53.6640625" class="er attributeBoxEven"></rect><text style="dominant-baseline: middle; font-size: 10.2px;" transform="translate(58.6640625,145)" y="0" x="0" id="text-entity-Message-65726993-045d-40f1-8f42-519081229810-attr-6-name" class="er entityLabel">updatedAt</text></g><g transform="translate(338.953125,331 )" id="entity-Conversation-4bd17a0f-0531-48ce-aff0-a2da34a3e75e"><rect height="46" width="100" y="0" x="0" class="er entityBox"></rect><text style="dominant-baseline: middle; text-anchor: middle; font-size: 12px;" transform="translate(50,12)" y="0" x="0" id="text-entity-Conversation-4bd17a0f-0531-48ce-aff0-a2da34a3e75e" class="er entityLabel">Conversation</text><rect height="22" width="58.96484375" y="24" x="0" class="er attributeBoxOdd"></rect><text style="dominant-baseline: middle; font-size: 10.2px;" transform="translate(5,35)" y="0" x="0" id="text-entity-Conversation-4bd17a0f-0531-48ce-aff0-a2da34a3e75e-attr-1-type" class="er entityLabel">String</text><rect height="22" width="41.03515625" y="24" x="58.96484375" class="er attributeBoxOdd"></rect><text style="dominant-baseline: middle; font-size: 10.2px;" transform="translate(63.96484375,35)" y="0" x="0" id="text-entity-Conversation-4bd17a0f-0531-48ce-aff0-a2da34a3e75e-attr-1-name" class="er entityLabel">id</text></g><g transform="translate(433.296875,20 )" id="entity-DirectMessage-ebe5d445-9cef-40af-9c19-83cad1650493"><rect height="156" width="111.3125" y="0" x="0" class="er entityBox"></rect><text style="dominant-baseline: middle; text-anchor: middle; font-size: 12px;" transform="translate(55.65625,12)" y="0" x="0" id="text-entity-DirectMessage-ebe5d445-9cef-40af-9c19-83cad1650493" class="er entityLabel">DirectMessage</text><rect height="22" width="53.6640625" y="24" x="0" class="er attributeBoxOdd"></rect><text style="dominant-baseline: middle; font-size: 10.2px;" transform="translate(5,35)" y="0" x="0" id="text-entity-DirectMessage-ebe5d445-9cef-40af-9c19-83cad1650493-attr-1-type" class="er entityLabel">String</text><rect height="22" width="57.6484375" y="24" x="53.6640625" class="er attributeBoxOdd"></rect><text style="dominant-baseline: middle; font-size: 10.2px;" transform="translate(58.6640625,35)" y="0" x="0" id="text-entity-DirectMessage-ebe5d445-9cef-40af-9c19-83cad1650493-attr-1-name" class="er entityLabel">id</text><rect height="22" width="53.6640625" y="46" x="0" class="er attributeBoxEven"></rect><text style="dominant-baseline: middle; font-size: 10.2px;" transform="translate(5,57)" y="0" x="0" id="text-entity-DirectMessage-ebe5d445-9cef-40af-9c19-83cad1650493-attr-2-type" class="er entityLabel">String</text><rect height="22" width="57.6484375" y="46" x="53.6640625" class="er attributeBoxEven"></rect><text style="dominant-baseline: middle; font-size: 10.2px;" transform="translate(58.6640625,57)" y="0" x="0" id="text-entity-DirectMessage-ebe5d445-9cef-40af-9c19-83cad1650493-attr-2-name" class="er entityLabel">content</text><rect height="22" width="53.6640625" y="68" x="0" class="er attributeBoxOdd"></rect><text style="dominant-baseline: middle; font-size: 10.2px;" transform="translate(5,79)" y="0" x="0" id="text-entity-DirectMessage-ebe5d445-9cef-40af-9c19-83cad1650493-attr-3-type" class="er entityLabel">String</text><rect height="22" width="57.6484375" y="68" x="53.6640625" class="er attributeBoxOdd"></rect><text style="dominant-baseline: middle; font-size: 10.2px;" transform="translate(58.6640625,79)" y="0" x="0" id="text-entity-DirectMessage-ebe5d445-9cef-40af-9c19-83cad1650493-attr-3-name" class="er entityLabel">fileUrl</text><rect height="22" width="53.6640625" y="90" x="0" class="er attributeBoxEven"></rect><text style="dominant-baseline: middle; font-size: 10.2px;" transform="translate(5,101)" y="0" x="0" id="text-entity-DirectMessage-ebe5d445-9cef-40af-9c19-83cad1650493-attr-4-type" class="er entityLabel">DateTime</text><rect height="22" width="57.6484375" y="90" x="53.6640625" class="er attributeBoxEven"></rect><text style="dominant-baseline: middle; font-size: 10.2px;" transform="translate(58.6640625,101)" y="0" x="0" id="text-entity-DirectMessage-ebe5d445-9cef-40af-9c19-83cad1650493-attr-4-name" class="er entityLabel">createdAt</text><rect height="22" width="53.6640625" y="112" x="0" class="er attributeBoxOdd"></rect><text style="dominant-baseline: middle; font-size: 10.2px;" transform="translate(5,123)" y="0" x="0" id="text-entity-DirectMessage-ebe5d445-9cef-40af-9c19-83cad1650493-attr-5-type" class="er entityLabel">DateTime</text><rect height="22" width="57.6484375" y="112" x="53.6640625" class="er attributeBoxOdd"></rect><text style="dominant-baseline: middle; font-size: 10.2px;" transform="translate(58.6640625,123)" y="0" x="0" id="text-entity-DirectMessage-ebe5d445-9cef-40af-9c19-83cad1650493-attr-5-name" class="er entityLabel">updatedAt</text><rect height="22" width="53.6640625" y="134" x="0" class="er attributeBoxEven"></rect><text style="dominant-baseline: middle; font-size: 10.2px;" transform="translate(5,145)" y="0" x="0" id="text-entity-DirectMessage-ebe5d445-9cef-40af-9c19-83cad1650493-attr-6-type" class="er entityLabel">Boolean</text><rect height="22" width="57.6484375" y="134" x="53.6640625" class="er attributeBoxEven"></rect><text style="dominant-baseline: middle; font-size: 10.2px;" transform="translate(58.6640625,145)" y="0" x="0" id="text-entity-DirectMessage-ebe5d445-9cef-40af-9c19-83cad1650493-attr-6-name" class="er entityLabel">deleted</text></g><rect height="14" width="35.734375" y="965.0050048828125" x="271.1741638183594" class="er relationshipLabelBox"></rect><text style="text-anchor: middle; dominant-baseline: middle; font-size: 12px;" y="972.0050048828125" x="289.0413513183594" id="rel1" class="er relationshipLabel">profile</text><rect height="14" width="35.734375" y="878.8079223632812" x="476.4256591796875" class="er relationshipLabelBox"></rect><text style="text-anchor: middle; dominant-baseline: middle; font-size: 12px;" y="885.8079223632812" x="494.2928466796875" id="rel2" class="er relationshipLabel">profile</text><rect height="14" width="33.15625" y="700.1316528320312" x="281.8878173828125" class="er relationshipLabelBox"></rect><text style="text-anchor: middle; dominant-baseline: middle; font-size: 12px;" y="707.1316528320312" x="298.4659423828125" id="rel3" class="er relationshipLabel">server</text><rect height="14" width="35.734375" y="871.1347045898438" x="115.44766235351562" class="er relationshipLabelBox"></rect><text style="text-anchor: middle; dominant-baseline: middle; font-size: 12px;" y="878.1347045898438" x="133.31484985351562" id="rel4" class="er relationshipLabel">profile</text><rect height="14" width="33.15625" y="750.3226318359375" x="103.35433197021484" class="er relationshipLabelBox"></rect><text style="text-anchor: middle; dominant-baseline: middle; font-size: 12px;" y="757.3226318359375" x="119.93245697021484" id="rel5" class="er relationshipLabel">server</text><rect height="14" width="44.3671875" y="490.8189392089844" x="212.40786743164062" class="er relationshipLabelBox"></rect><text style="text-anchor: middle; dominant-baseline: middle; font-size: 12px;" y="497.8189392089844" x="234.59146118164062" id="rel6" class="er relationshipLabel">member</text><rect height="14" width="42" y="473.9310302734375" x="64.96334838867188" class="er relationshipLabelBox"></rect><text style="text-anchor: middle; dominant-baseline: middle; font-size: 12px;" y="480.9310302734375" x="85.96334838867188" id="rel7" class="er relationshipLabel">channel</text><rect height="14" width="65.5546875" y="453.9464111328125" x="373.3081970214844" class="er relationshipLabelBox"></rect><text style="text-anchor: middle; dominant-baseline: middle; font-size: 12px;" y="460.9464111328125" x="406.0855407714844" id="rel8" class="er relationshipLabel">memberOne</text><rect height="14" width="65.0390625" y="449.25555419921875" x="299.5158996582031" class="er relationshipLabelBox"></rect><text style="text-anchor: middle; dominant-baseline: middle; font-size: 12px;" y="456.25555419921875" x="332.0354309082031" id="rel9" class="er relationshipLabel">memberTwo</text><rect height="14" width="44.3671875" y="381.7315673828125" x="516.385986328125" class="er relationshipLabelBox"></rect><text style="text-anchor: middle; dominant-baseline: middle; font-size: 12px;" y="388.7315673828125" x="538.569580078125" id="rel10" class="er relationshipLabel">member</text><rect height="14" width="68.3671875" y="237.9167022705078" x="359.63446044921875" class="er relationshipLabelBox"></rect><text style="text-anchor: middle; dominant-baseline: middle; font-size: 12px;" y="244.9167022705078" x="393.81805419921875" id="rel11" class="er relationshipLabel">conversation</text></svg>